<svg width="1440" height="60" viewBox="0 0 1440 60" fill="none" xmlns="http://www.w3.org/2000/svg">
<path d="M1440 0H0V60H1440V0Z" fill="white"/>
<path d="M1415 23C1415 24.1046 1415.9 25 1417 25C1418.1 25 1419 24.1046 1419 23C1419 21.8954 1418.1 21 1417 21C1415.9 21 1415 21.8954 1415 23Z" fill="#9FA6B7"/>
<path d="M1415 30C1415 31.1046 1415.9 32 1417 32C1418.1 32 1419 31.1046 1419 30C1419 28.8954 1418.1 28 1417 28C1415.9 28 1415 28.8954 1415 30Z" fill="#9FA6B7"/>
<path d="M1415 37C1415 38.1046 1415.9 39 1417 39C1418.1 39 1419 38.1046 1419 37C1419 35.8954 1418.1 35 1417 35C1415.9 35 1415 35.8954 1415 37Z" fill="#9FA6B7"/>
<path d="M1354 24.6C1353.06 24.6012 1352.16 24.9746 1351.5 25.6383C1350.83 26.3021 1350.46 27.2019 1350.46 28.1406H1352.26C1352.26 27.1803 1353.04 26.4 1354 26.4C1354.96 26.4 1355.74 27.1803 1355.74 28.1406C1355.74 28.6788 1355.31 29.0694 1354.65 29.604C1354.43 29.7733 1354.22 29.9532 1354.02 30.1431C1353.13 31.0404 1353.1 31.9935 1353.1 32.0997V32.7H1354.9L1354.9 32.1303C1354.9 32.1159 1354.93 31.7829 1355.3 31.4166C1355.43 31.2816 1355.6 31.1466 1355.78 31.0044C1356.48 30.4365 1357.54 29.5788 1357.54 28.1406C1357.54 27.202 1357.17 26.3019 1356.5 25.6381C1355.84 24.9743 1354.94 24.601 1354 24.6ZM1353.1 33.6H1354.9V35.4H1353.1V33.6Z" fill="#9FA6B7"/>
<path d="M1354 21C1349.04 21 1345 25.0374 1345 30C1345 34.9626 1349.04 39 1354 39C1358.96 39 1363 34.9626 1363 30C1363 25.0374 1358.96 21 1354 21ZM1354 37.2C1350.03 37.2 1346.8 33.9699 1346.8 30C1346.8 26.0301 1350.03 22.8 1354 22.8C1357.97 22.8 1361.2 26.0301 1361.2 30C1361.2 33.9699 1357.97 37.2 1354 37.2Z" fill="#9FA6B7"/>
<path d="M1323.29 33.8683C1323.25 33.9077 1323.2 33.9392 1323.15 33.9608C1323.1 33.9823 1323.05 33.9935 1322.99 33.9935C1322.93 33.9935 1322.88 33.9823 1322.83 33.9608C1322.78 33.9392 1322.73 33.9077 1322.69 33.8683L1320.14 31.2613L1317.93 29.0033C1317.87 28.9478 1317.84 28.8783 1317.82 28.8035C1317.81 28.7287 1317.82 28.6519 1317.85 28.5825C1317.88 28.5132 1317.94 28.4543 1318.01 28.4132C1318.07 28.3721 1318.15 28.3506 1318.23 28.3513H1327.76C1327.84 28.3515 1327.92 28.3736 1327.99 28.4148C1328.05 28.4561 1328.11 28.5147 1328.14 28.5838C1328.17 28.6528 1328.18 28.7291 1328.17 28.8036C1328.16 28.8781 1328.12 28.9475 1328.07 29.0033L1325.85 31.2623L1323.29 33.8683Z" fill="#C3C9DD"/>
<path d="M1250.95 35.4102H1249.79V26.4482H1246.63V25.416H1254.12V26.4482H1250.95V35.4102ZM1258.62 35.5469C1257.52 35.5469 1256.64 35.2096 1256 34.5352C1255.36 33.8607 1255.04 32.9242 1255.04 31.7256C1255.04 30.5179 1255.34 29.5586 1255.93 28.8477C1256.53 28.1367 1257.33 27.7812 1258.33 27.7812C1259.27 27.7812 1260.01 28.0911 1260.56 28.7109C1261.11 29.3262 1261.38 30.1396 1261.38 31.1514V31.8691H1256.22C1256.24 32.7487 1256.46 33.4163 1256.88 33.8721C1257.3 34.3278 1257.9 34.5557 1258.67 34.5557C1259.47 34.5557 1260.27 34.387 1261.06 34.0498V35.0615C1260.66 35.2347 1260.28 35.3577 1259.92 35.4307C1259.56 35.5081 1259.13 35.5469 1258.62 35.5469ZM1258.32 28.7314C1257.71 28.7314 1257.23 28.9274 1256.87 29.3193C1256.52 29.7113 1256.31 30.2536 1256.25 30.9463H1260.16C1260.16 30.2308 1260 29.6839 1259.68 29.3057C1259.36 28.9229 1258.91 28.7314 1258.32 28.7314ZM1268.15 33.3662C1268.15 34.0635 1267.89 34.6012 1267.37 34.9795C1266.85 35.3577 1266.13 35.5469 1265.19 35.5469C1264.19 35.5469 1263.42 35.3896 1262.86 35.0752V34.0225C1263.22 34.2048 1263.61 34.3483 1264.02 34.4531C1264.43 34.5579 1264.83 34.6104 1265.21 34.6104C1265.81 34.6104 1266.26 34.5169 1266.58 34.3301C1266.9 34.1387 1267.06 33.8493 1267.06 33.4619C1267.06 33.1702 1266.93 32.9219 1266.68 32.7168C1266.43 32.5072 1265.93 32.2611 1265.2 31.9785C1264.5 31.7188 1264.01 31.4932 1263.71 31.3018C1263.42 31.1058 1263.2 30.8848 1263.05 30.6387C1262.91 30.3926 1262.84 30.0986 1262.84 29.7568C1262.84 29.1462 1263.09 28.6654 1263.59 28.3145C1264.08 27.959 1264.76 27.7812 1265.63 27.7812C1266.44 27.7812 1267.23 27.9453 1268 28.2734L1267.59 29.1963C1266.84 28.8864 1266.16 28.7314 1265.55 28.7314C1265.01 28.7314 1264.61 28.8158 1264.33 28.9844C1264.06 29.153 1263.92 29.3854 1263.92 29.6816C1263.92 29.8822 1263.97 30.0531 1264.07 30.1943C1264.18 30.3356 1264.34 30.4701 1264.57 30.5977C1264.8 30.7253 1265.24 30.9098 1265.88 31.1514C1266.77 31.4749 1267.37 31.8008 1267.68 32.1289C1268 32.457 1268.15 32.8695 1268.15 33.3662ZM1272.43 34.6104C1272.63 34.6104 1272.82 34.5967 1273.01 34.5693C1273.19 34.5374 1273.34 34.5055 1273.45 34.4736V35.3418C1273.33 35.401 1273.15 35.4489 1272.9 35.4854C1272.67 35.5264 1272.45 35.5469 1272.26 35.5469C1270.81 35.5469 1270.09 34.7835 1270.09 33.2568V28.7998H1269.01V28.2529L1270.09 27.7812L1270.57 26.1816H1271.22V27.918H1273.4V28.7998H1271.22V33.209C1271.22 33.6602 1271.33 34.0065 1271.54 34.248C1271.76 34.4896 1272.05 34.6104 1272.43 34.6104ZM1274.79 34.6855C1274.79 34.3802 1274.86 34.1501 1275 33.9951C1275.14 33.8356 1275.34 33.7559 1275.6 33.7559C1275.86 33.7559 1276.07 33.8356 1276.21 33.9951C1276.36 34.1501 1276.44 34.3802 1276.44 34.6855C1276.44 34.9818 1276.36 35.2096 1276.21 35.3691C1276.06 35.5286 1275.86 35.6084 1275.6 35.6084C1275.37 35.6084 1275.17 35.5378 1275.02 35.3965C1274.87 35.2507 1274.79 35.0137 1274.79 34.6855ZM1281.68 35.5469C1280.6 35.5469 1279.76 35.2142 1279.16 34.5488C1278.57 33.8789 1278.27 32.9333 1278.27 31.7119C1278.27 30.4587 1278.57 29.4902 1279.17 28.8066C1279.78 28.123 1280.64 27.7812 1281.76 27.7812C1282.12 27.7812 1282.48 27.82 1282.84 27.8975C1283.2 27.9749 1283.48 28.0661 1283.68 28.1709L1283.34 29.1348C1283.09 29.0345 1282.81 28.9525 1282.52 28.8887C1282.22 28.8203 1281.96 28.7861 1281.73 28.7861C1280.21 28.7861 1279.45 29.7568 1279.45 31.6982C1279.45 32.6188 1279.63 33.3252 1280 33.8174C1280.37 34.3096 1280.93 34.5557 1281.65 34.5557C1282.28 34.5557 1282.92 34.4212 1283.58 34.1523V35.1572C1283.07 35.417 1282.44 35.5469 1281.68 35.5469ZM1291.83 31.6572C1291.83 32.8786 1291.52 33.8333 1290.9 34.5215C1290.29 35.2051 1289.44 35.5469 1288.35 35.5469C1287.68 35.5469 1287.09 35.3896 1286.57 35.0752C1286.05 34.7607 1285.65 34.3096 1285.37 33.7217C1285.08 33.1338 1284.94 32.4456 1284.94 31.6572C1284.94 30.4359 1285.25 29.4857 1285.86 28.8066C1286.47 28.123 1287.32 27.7812 1288.4 27.7812C1289.45 27.7812 1290.28 28.1299 1290.9 28.8271C1291.52 29.5244 1291.83 30.4678 1291.83 31.6572ZM1286.12 31.6572C1286.12 32.6143 1286.31 33.3434 1286.69 33.8447C1287.08 34.346 1287.64 34.5967 1288.38 34.5967C1289.12 34.5967 1289.69 34.3483 1290.07 33.8516C1290.46 33.3503 1290.65 32.6188 1290.65 31.6572C1290.65 30.7048 1290.46 29.9824 1290.07 29.4902C1289.69 28.9935 1289.12 28.7451 1288.37 28.7451C1287.62 28.7451 1287.06 28.9889 1286.69 29.4766C1286.31 29.9642 1286.12 30.6911 1286.12 31.6572ZM1303.37 35.4102V30.5361C1303.37 29.9391 1303.24 29.4925 1302.99 29.1963C1302.73 28.8955 1302.34 28.7451 1301.8 28.7451C1301.09 28.7451 1300.57 28.9479 1300.23 29.3535C1299.9 29.7591 1299.73 30.3835 1299.73 31.2266V35.4102H1298.59V30.5361C1298.59 29.9391 1298.47 29.4925 1298.21 29.1963C1297.96 28.8955 1297.56 28.7451 1297.01 28.7451C1296.3 28.7451 1295.78 28.9593 1295.45 29.3877C1295.12 29.8115 1294.96 30.5088 1294.96 31.4795V35.4102H1293.82V27.918H1294.75L1294.93 28.9434H1294.98C1295.2 28.5788 1295.5 28.2939 1295.89 28.0889C1296.28 27.8838 1296.72 27.7812 1297.2 27.7812C1298.37 27.7812 1299.14 28.2051 1299.5 29.0527H1299.55C1299.77 28.6608 1300.1 28.3509 1300.52 28.123C1300.95 27.8952 1301.43 27.7812 1301.97 27.7812C1302.82 27.7812 1303.45 28 1303.87 28.4375C1304.29 28.8704 1304.51 29.5654 1304.51 30.5225V35.4102H1303.37Z" fill="#6C798E"/>
<path d="M1398.21 28.4096H1397.33C1397.12 28.4024 1396.92 28.3355 1396.75 28.2177C1396.59 28.0998 1396.46 27.9367 1396.39 27.7496L1395.89 26.5996C1395.8 26.4225 1395.77 26.2244 1395.8 26.0304C1395.83 25.8364 1395.92 25.6552 1396.06 25.5096L1396.69 24.9196C1396.75 24.8562 1396.81 24.7807 1396.85 24.6974C1396.88 24.6142 1396.9 24.5249 1396.9 24.4346C1396.9 24.3444 1396.88 24.2551 1396.85 24.1718C1396.81 24.0886 1396.75 24.0131 1396.69 23.9496L1395.65 22.9796C1395.58 22.9155 1395.5 22.8645 1395.41 22.8298C1395.33 22.795 1395.23 22.7771 1395.14 22.7771C1395.04 22.7771 1394.95 22.795 1394.86 22.8298C1394.77 22.8645 1394.69 22.9155 1394.62 22.9796L1394.01 23.5696C1393.86 23.7032 1393.66 23.79 1393.46 23.8185C1393.25 23.8471 1393.04 23.8161 1392.85 23.7296L1391.64 23.2596C1391.44 23.1929 1391.27 23.0728 1391.14 22.9144C1391.02 22.7561 1390.95 22.5665 1390.94 22.3696V21.5396C1390.94 21.3567 1390.86 21.1813 1390.72 21.052C1390.59 20.9227 1390.4 20.8499 1390.21 20.8496H1388.75C1388.55 20.8499 1388.37 20.9227 1388.23 21.052C1388.09 21.1813 1388.02 21.3567 1388.02 21.5396V22.3696C1388.01 22.5673 1387.94 22.7581 1387.81 22.917C1387.69 23.0759 1387.51 23.1953 1387.32 23.2596L1386.1 23.7296C1385.91 23.8165 1385.7 23.8477 1385.5 23.8192C1385.29 23.7906 1385.1 23.7036 1384.94 23.5696L1384.32 22.9796C1384.25 22.9155 1384.17 22.8645 1384.08 22.8298C1384 22.795 1383.9 22.7771 1383.81 22.7771C1383.71 22.7771 1383.62 22.795 1383.53 22.8298C1383.44 22.8645 1383.36 22.9155 1383.29 22.9796L1382.27 23.9496C1382.2 24.0131 1382.14 24.0886 1382.11 24.1718C1382.07 24.2551 1382.05 24.3444 1382.05 24.4346C1382.05 24.5249 1382.07 24.6142 1382.11 24.6974C1382.14 24.7807 1382.2 24.8562 1382.27 24.9196L1382.88 25.5096C1383.02 25.6541 1383.11 25.8354 1383.14 26.0299C1383.17 26.2244 1383.14 26.4229 1383.05 26.5996L1382.55 27.7496C1382.48 27.9356 1382.35 28.0976 1382.19 28.2151C1382.02 28.3327 1381.82 28.4004 1381.61 28.4096H1380.73C1380.54 28.4099 1380.35 28.4827 1380.21 28.612C1380.08 28.7413 1380 28.9167 1380 29.0996V30.4796C1380 30.6625 1380.08 30.8379 1380.21 30.9672C1380.35 31.0966 1380.54 31.1694 1380.73 31.1696H1381.61C1381.82 31.1789 1382.02 31.2466 1382.19 31.3641C1382.35 31.4817 1382.48 31.6437 1382.55 31.8297L1383.06 32.9796C1383.15 33.1562 1383.18 33.3549 1383.15 33.5494C1383.12 33.744 1383.03 33.9253 1382.89 34.0696L1382.27 34.6596C1382.2 34.723 1382.14 34.7986 1382.11 34.8818C1382.07 34.9651 1382.05 35.0544 1382.05 35.1447C1382.05 35.2349 1382.07 35.3242 1382.11 35.4074C1382.14 35.4907 1382.2 35.5662 1382.27 35.6296L1383.29 36.5996C1383.36 36.6638 1383.44 36.7147 1383.53 36.7495C1383.62 36.7843 1383.71 36.8022 1383.81 36.8022C1383.9 36.8022 1384 36.7843 1384.08 36.7495C1384.17 36.7147 1384.25 36.6638 1384.32 36.5996L1384.94 36.0096C1385.1 35.8763 1385.29 35.7897 1385.5 35.7611C1385.7 35.7326 1385.91 35.7634 1386.1 35.8496L1387.33 36.3297C1387.52 36.3957 1387.7 36.5156 1387.82 36.6741C1387.94 36.8326 1388.02 37.0225 1388.03 37.2196V38.0396C1388.03 38.2225 1388.1 38.3979 1388.24 38.5272C1388.38 38.6566 1388.56 38.7293 1388.76 38.7296H1390.22C1390.41 38.7293 1390.6 38.6566 1390.73 38.5272C1390.87 38.3979 1390.95 38.2225 1390.95 38.0396V37.2196C1390.96 37.0225 1391.03 36.8326 1391.15 36.6741C1391.28 36.5156 1391.45 36.3957 1391.65 36.3297L1392.86 35.8496C1393.05 35.7634 1393.26 35.7326 1393.47 35.7611C1393.67 35.7897 1393.87 35.8763 1394.02 36.0096L1394.63 36.5996C1394.7 36.6638 1394.78 36.7147 1394.87 36.7495C1394.96 36.7843 1395.05 36.8022 1395.15 36.8022C1395.24 36.8022 1395.34 36.7843 1395.42 36.7495C1395.51 36.7147 1395.59 36.6638 1395.66 36.5996L1396.7 35.6296C1396.77 35.5662 1396.82 35.4907 1396.86 35.4074C1396.89 35.3242 1396.91 35.2349 1396.91 35.1447C1396.91 35.0544 1396.89 34.9651 1396.86 34.8818C1396.82 34.7986 1396.77 34.723 1396.7 34.6596L1396.07 34.0696C1395.93 33.9241 1395.84 33.7429 1395.81 33.5489C1395.78 33.3549 1395.81 33.1568 1395.9 32.9796L1396.4 31.8297C1396.47 31.6437 1396.6 31.4817 1396.77 31.3641C1396.93 31.2466 1397.13 31.1789 1397.34 31.1696H1398.22C1398.42 31.1694 1398.6 31.0966 1398.74 30.9672C1398.88 30.8379 1398.95 30.6625 1398.95 30.4796V29.0996C1398.94 28.9173 1398.86 28.7447 1398.73 28.6166C1398.59 28.4885 1398.4 28.4145 1398.21 28.4096ZM1394.9 29.7797C1394.9 30.7947 1394.58 31.7875 1393.99 32.6324C1393.39 33.4774 1392.54 34.1364 1391.55 34.5262C1390.56 34.9161 1389.47 35.0191 1388.41 34.8223C1387.36 34.6255 1386.39 34.1377 1385.63 33.4207C1384.87 32.7036 1384.35 31.7895 1384.14 30.7941C1383.93 29.7987 1384.04 28.7668 1384.45 27.8288C1384.86 26.8908 1385.55 26.089 1386.45 25.5249C1387.34 24.9608 1388.39 24.6596 1389.47 24.6596C1390.9 24.6585 1392.29 25.1973 1393.3 26.1575C1394.32 27.1176 1394.9 28.4205 1394.9 29.7797Z" fill="#9FA6B7"/>
<path d="M1389.47 32.0197C1388.84 32.0191 1388.24 31.784 1387.8 31.3659C1387.35 30.9478 1387.11 30.3809 1387.1 29.7896C1387.11 29.1983 1387.35 28.6315 1387.8 28.2134C1388.24 27.7953 1388.84 27.5602 1389.47 27.5596C1390.09 27.5602 1390.69 27.7953 1391.13 28.2134C1391.58 28.6315 1391.83 29.1983 1391.83 29.7896C1391.83 30.3809 1391.58 30.9478 1391.13 31.3659C1390.69 31.784 1390.09 32.0191 1389.47 32.0197Z" fill="#9FA6B7"/>
<path d="M1440 59H0V60H1440V59Z" fill="#D3D8E0"/>
<path d="M50.4152 25.3399C50.4005 25.589 50.3655 25.8365 50.3106 26.0799L49.9978 27.3479L49.4767 29.0389L48.8511 31.0469L48.0162 33.1599L47.1863 35.0599L46.3524 36.6449L45.6221 37.8069H45.101L44.3708 37.5959L43.7451 37.1729L43.2241 36.5389L42.8066 35.9049L42.181 34.6369L41.5553 33.0519L41.0293 31.3599C40.864 30.839 40.7246 30.31 40.6119 29.7749C40.4792 30.4545 40.3052 31.1251 40.0908 31.7829L39.2569 34.0019L38.3184 36.2209C38.058 36.8128 37.7438 37.3789 37.3799 37.9119H36.9625L36.2322 37.7009L35.502 37.2779L34.9809 36.6439L34.5635 36.0099C33.5834 34.2281 32.7801 32.3523 32.1654 30.4099C31.4822 28.3125 30.9935 26.1552 30.7059 23.9659H32.4822C32.7322 23.9521 32.9822 23.992 33.2159 24.083C33.4495 24.174 33.6616 24.314 33.8381 24.4939C34.1563 24.8098 34.3718 25.2166 34.4559 25.6599C34.6645 26.8599 34.9424 28.0932 35.2898 29.3599C35.634 30.6634 36.0877 31.9347 36.6457 33.1599C37.2502 31.795 37.7391 30.3806 38.1072 28.9319L39.1523 24.5999H40.3C40.8156 24.6028 41.3205 24.7491 41.7596 25.0229C42.2371 25.3395 42.5739 25.8325 42.6981 26.3969L43.1155 27.9819L43.6366 29.6729L44.2622 31.4729L44.9925 33.0579C45.5703 31.5834 46.0239 30.0619 46.3484 28.5099C46.7655 26.9599 47.1132 25.4099 47.3915 23.8599H48.7475C49.1535 23.8367 49.556 23.948 49.8942 24.1769C50.0673 24.3134 50.2052 24.4905 50.2959 24.6928C50.3867 24.8952 50.4276 25.1169 50.4152 25.3389" fill="#11C0D6"/>
<path d="M63.3459 37.7019C63.0401 37.7143 62.7349 37.6647 62.4483 37.5558C62.1617 37.4469 61.8995 37.281 61.6772 37.0679C61.4617 36.8462 61.2947 36.5811 61.1869 36.2898C61.0791 35.9985 61.033 35.6874 61.0515 35.3769V29.7769C61.0693 29.2753 60.9988 28.7744 60.8433 28.2979C60.7057 27.9384 60.4922 27.6138 60.2176 27.3469L59.3837 26.8209L58.3406 26.6099L57.5067 26.8209L56.6729 27.3489C56.4031 27.6199 56.1903 27.9434 56.0472 28.2999C55.8958 28.7774 55.8254 29.2775 55.839 29.7789V37.5989H54.9005C54.577 37.6266 54.2514 37.5844 53.9452 37.4751C53.6389 37.3658 53.3591 37.1919 53.1241 36.9649C52.7469 36.4869 52.5615 35.8823 52.6051 35.2719V19.4209H53.6482C53.9711 19.3996 54.295 19.4448 54.6003 19.5538C54.9056 19.6627 55.186 19.8332 55.4245 20.0549C55.6318 20.2604 55.7946 20.5076 55.9023 20.7805C56.01 21.0534 56.0604 21.3461 56.0502 21.6399V25.4399L56.5712 24.8059L57.3015 24.1719L58.1354 23.7489L59.0739 23.5379C59.8133 23.5313 60.5463 23.6779 61.2278 23.9687C61.9093 24.2595 62.525 24.6883 63.037 25.2289C64.0735 26.4602 64.5969 28.0517 64.4966 29.6669V37.6979L63.3459 37.7019Z" fill="#11C0D6"/>
<path d="M78.3628 33.0479C78.3601 33.739 78.2181 34.4224 77.9454 35.0559C77.7132 35.6554 77.358 36.198 76.9032 36.6479C76.4174 37.0777 75.8493 37.4015 75.2345 37.5989C74.5641 37.8319 73.8576 37.9393 73.1493 37.9159H72.419C71.6772 37.9269 70.9383 37.82 70.2292 37.5989C69.6217 37.3846 69.0567 37.0626 68.5604 36.6479C68.0853 36.2922 67.6971 35.8307 67.4259 35.2989C67.1547 34.7672 67.0077 34.1794 66.9963 33.5809C66.982 33.0012 67.0886 32.425 67.3091 31.8899C67.5619 31.3354 67.9581 30.8605 68.4558 30.5159C69.0861 30.0696 69.7934 29.7471 70.541 29.5649C71.5677 29.3316 72.6184 29.2252 73.6703 29.2479H74.817V29.1429C74.8629 28.7734 74.8205 28.3981 74.6935 28.0487C74.5664 27.6992 74.3583 27.3858 74.0868 27.1349C73.4274 26.7358 72.663 26.5515 71.897 26.6069H70.542L69.2907 27.1349L68.3522 27.6629L67.8311 28.1909H67.7265V27.1349C67.748 26.7294 67.8547 26.3332 68.0394 25.9729C68.2355 25.5622 68.5198 25.201 68.8713 24.9159C69.2937 24.5077 69.7891 24.1849 70.3308 23.9649C71.0755 23.7394 71.8502 23.6325 72.6272 23.6479L74.817 23.9649C75.4712 24.145 76.0779 24.4698 76.5934 24.9159C77.1476 25.4446 77.5756 26.0944 77.8447 26.8159C78.2031 27.7595 78.3799 28.7639 78.3658 29.7749L78.3628 33.0479ZM75.0263 31.6739H72.3144L71.2713 31.9909C71.0492 32.1099 70.8677 32.2939 70.7502 32.5189C70.6647 32.7554 70.629 33.0075 70.6456 33.2589C70.6368 33.5064 70.6895 33.7522 70.7988 33.9738C70.9081 34.1953 71.0706 34.3855 71.2713 34.5269C71.8036 34.8565 72.4261 35.0048 73.0476 34.9499C74.5075 34.9499 75.2374 34.2456 75.2374 32.8369L75.0263 31.6739Z" fill="#11C0D6"/>
<path d="M81.1773 24.4949C81.1594 24.2135 81.1594 23.9312 81.1773 23.6499C81.2245 23.4317 81.2943 23.2192 81.3856 23.0159L81.6984 22.4879L82.1158 21.8539L82.8461 21.1139L83.68 20.7969H84.4103V23.9649H89.1027V25.3389C89.069 25.7462 88.8812 26.1245 88.5787 26.3949C88.3707 26.5915 88.1233 26.7404 87.8534 26.8315C87.5835 26.9226 87.2974 26.9538 87.0146 26.9229H84.5149V32.3119C84.44 32.9896 84.6267 33.6704 85.0359 34.2119C85.4695 34.5876 86.0307 34.7771 86.6001 34.7399C87.4311 34.7775 88.2575 34.5956 88.9981 34.2119H89.1027V35.4799C89.1233 35.8004 89.0678 36.1212 88.9407 36.4154C88.8136 36.7097 88.6188 36.9687 88.3725 37.1709C87.7347 37.6279 86.9624 37.8515 86.1826 37.8049C85.4803 37.864 84.7735 37.7722 84.1085 37.5355C83.4436 37.2987 82.8355 36.9223 82.3241 36.4309C81.4928 35.3894 81.083 34.0669 81.1773 32.7309V24.4949Z" fill="#11C0D6"/>
<path d="M98.906 22.3799L98.0722 22.1689H95.9869L95.2567 22.4859C95.0265 22.6862 94.8477 22.9401 94.7356 23.2259C94.587 23.5943 94.5161 23.9901 94.5274 24.3879V25.6559H98.388V26.6039C98.4038 26.9004 98.3313 27.1948 98.1797 27.4489L97.6587 28.0829L96.9284 28.5059H94.5304V37.7039H93.1705C92.9047 37.7198 92.6384 37.6812 92.3877 37.5905C92.1369 37.4998 91.9067 37.3588 91.7109 37.1759C91.5062 36.9908 91.3441 36.7624 91.236 36.5068C91.1278 36.2513 91.0764 35.9748 91.0853 35.6969V24.1769C91.1119 23.6358 91.2174 23.1017 91.3981 22.5919C91.5905 21.9687 91.9103 21.3936 92.3366 20.9039C92.8006 20.3684 93.3687 19.9357 94.0054 19.6329C94.7544 19.2733 95.5747 19.0924 96.4034 19.1039C97.0696 19.0575 97.7314 19.2438 98.2784 19.6319C98.5165 19.8175 98.7072 20.0583 98.8343 20.3342C98.9613 20.61 99.0212 20.9127 99.0087 21.2169V22.3799H98.906Z" fill="#11C0D6"/>
<path d="M104.433 21.0069C104.428 21.2671 104.369 21.5234 104.261 21.7597C104.154 21.9961 103.999 22.2075 103.808 22.3809C103.641 22.5796 103.433 22.7392 103.199 22.8487C102.965 22.9581 102.71 23.0148 102.452 23.0148C102.195 23.0148 101.94 22.9581 101.706 22.8487C101.472 22.7392 101.264 22.5796 101.097 22.3809C100.924 22.1986 100.789 21.9832 100.699 21.7472C100.61 21.5113 100.567 21.2596 100.575 21.0069C100.567 20.7543 100.609 20.5026 100.699 20.2667C100.788 20.0308 100.923 19.8153 101.096 19.6329C101.263 19.4342 101.471 19.2746 101.705 19.1651C101.939 19.0557 102.194 18.999 102.451 18.999C102.709 18.999 102.964 19.0557 103.198 19.1651C103.432 19.2746 103.64 19.4342 103.807 19.6329C103.998 19.8063 104.153 20.0177 104.26 20.2541C104.368 20.4904 104.427 20.7467 104.432 21.0069H104.433ZM106.831 35.7989C106.897 36.3619 106.748 36.929 106.414 37.3839C106.194 37.5565 105.943 37.6829 105.674 37.7555C105.405 37.8281 105.125 37.8456 104.85 37.8069C104.301 37.8533 103.749 37.7832 103.228 37.6012C102.707 37.4192 102.23 37.1293 101.826 36.7499C101.084 35.8713 100.71 34.7339 100.783 33.5799V24.2799H101.722C102.045 24.2586 102.368 24.3038 102.674 24.4128C102.979 24.5218 103.259 24.6922 103.498 24.9139C103.724 25.171 103.896 25.472 104.004 25.7987C104.111 26.1253 104.152 26.4708 104.124 26.8139V33.2599C104.096 33.5057 104.119 33.7546 104.191 33.991C104.263 34.2274 104.382 34.4462 104.541 34.6339C105.005 34.9395 105.553 35.0877 106.105 35.0569H106.835L106.831 35.7989Z" fill="#11C0D6"/>
<path d="M120.704 36.2239C120.716 36.4613 120.676 36.6986 120.586 36.9181C120.496 37.1376 120.358 37.3337 120.183 37.4919C119.707 37.8655 119.115 38.0529 118.514 38.0199C117.836 38.0273 117.176 37.8041 116.639 37.3859C115.975 36.8167 115.411 36.1378 114.97 35.3779L113.506 33.1599L112.463 34.5329L111.733 35.5899C111.506 35.9505 111.331 36.3417 111.212 36.7519C111.122 37.1351 111.052 37.523 111.004 37.9139H109.334C108.994 37.9222 108.663 37.8101 108.396 37.5969C108.272 37.4936 108.17 37.3649 108.098 37.2194C108.026 37.0738 107.986 36.9145 107.978 36.7519C107.971 35.9333 108.188 35.1286 108.604 34.4269C109.163 33.4405 109.828 32.5193 110.586 31.6799L111.732 30.5179L110.273 28.4039L109.126 26.8189L108.396 25.6599L107.978 24.8149C107.913 24.5727 107.878 24.323 107.875 24.0719H110.377L111.003 24.4949L111.837 25.2349L112.88 26.6089L114.236 28.5089L115.592 26.9249L116.426 25.7599L116.843 24.8089C116.938 24.4988 117.008 24.1814 117.052 23.8599H118.304C118.498 23.8432 118.694 23.8727 118.875 23.9461C119.056 24.0196 119.217 24.1349 119.347 24.2829C119.573 24.5859 119.684 24.961 119.66 25.3399C119.614 25.7886 119.472 26.2215 119.242 26.6079C118.918 27.2752 118.534 27.9112 118.095 28.5079L117.151 29.6719L116.008 30.9399L117.469 33.1599L118.407 34.5339L119.138 35.3789L119.868 35.9069L120.702 36.2239" fill="#11C0D6"/>
<path d="M1230.89 32.2406V27.6006C1230.89 26.4139 1230.47 25.2608 1229.69 24.3317C1228.91 23.4025 1227.81 22.7531 1226.59 22.4906L1226.51 22.4706C1225.69 22.3072 1224.84 22.314 1224.01 22.4906C1222.79 22.7547 1221.7 23.4046 1220.92 24.3334C1220.13 25.2621 1219.71 26.4144 1219.72 27.6006V32.2406L1218 33.6806V34.4906H1232.6V33.6806L1230.89 32.2406Z" stroke="#8C96A9" stroke-width="1.375" stroke-miterlimit="10"/>
<path d="M1223.1 36.1306C1223.1 36.6823 1223.34 37.2113 1223.75 37.6014C1224.16 37.9915 1224.72 38.2106 1225.31 38.2106C1225.89 38.2106 1226.45 37.9915 1226.86 37.6014C1227.28 37.2113 1227.51 36.6823 1227.51 36.1306H1223.1Z" fill="#8C96A9"/>
<path d="M1230.12 27.0606C1232.88 27.0606 1235.11 24.9519 1235.11 22.3506C1235.11 19.7494 1232.88 17.6406 1230.12 17.6406C1227.37 17.6406 1225.14 19.7494 1225.14 22.3506C1225.14 24.9519 1227.37 27.0606 1230.12 27.0606Z" fill="white"/>
<path d="M1230.12 25.0406C1231.7 25.0406 1232.97 23.8363 1232.97 22.3506C1232.97 20.865 1231.7 19.6606 1230.12 19.6606C1228.55 19.6606 1227.28 20.865 1227.28 22.3506C1227.28 23.8363 1228.55 25.0406 1230.12 25.0406Z" fill="#00BCD4"/>
</svg>
